<?xml version="1.0" encoding="utf-8"?>
<!DOCTYPE svg PUBLIC "-//W3C//DTD SVG 20010904//EN" "http://www.w3.org/TR/2001/REC-SVG-20010904/DTD/svg10.dtd">
<svg version="1.0" xmlns="http://www.w3.org/2000/svg" width="1763px" height="912px" viewBox="0 0 1763 912" preserveAspectRatio="xMidYMid meet">
 <g fill="#ffffff">
  <path d="M3.2 749.4 c-13.5 -9.4 33.1 -99.3 92.1 -177.4 8.5 -11.3 15.4 -20.6 15.3 -20.8 -0.2 -0.1 -1.9 0.5 -3.9 1.3 -5.1 2.1 -9.4 1.9 -15.2 -0.9 -10.6 -4.9 -19.2 -17.4 -23.6 -34.1 -1.6 -6.1 -2.2 -12.3 -2.6 -25.7 -0.3 -9.8 -0.8 -17.8 -1 -17.8 -0.2 0 -3.5 2.7 -7.3 5.9 -15.5 13.4 -30.4 20.8 -43.6 21.8 -6.6 0.5 -7.2 0.4 -8.8 -1.8 -3.9 -5.7 -0.4 -9.9 8.2 -9.9 12.6 0 28.8 -8 45.9 -22.7 5.9 -5.2 6.2 -5.6 6.8 -11.1 1.9 -17.7 2.9 -25 5.2 -36.7 7.5 -39.3 18.8 -73 37.7 -112 16.2 -33.4 34.5 -62.9 48.1 -77.3 11.6 -12.3 17.3 -14.9 20.2 -9.2 1.8 3.6 1.6 8.9 -1.3 29.3 -6.3 45.5 -16.9 81.6 -33.9 116.2 -18.6 37.9 -38.1 66.2 -64.7 94 l-9.1 9.6 0.6 17.7 c1 30.4 6.4 46.5 18.5 55.8 9.4 7.1 16.4 6.8 24.8 -1.3 10 -9.7 16 -20.8 40.9 -75.8 21.7 -47.9 35.8 -76.3 43.3 -87.4 6.1 -9.1 8 -10.8 10.7 -9.7 1.5 0.5 1.7 1.7 1.3 9.4 -0.4 7.3 -1.4 11.6 -6.6 26.7 -3.3 9.9 -10.5 29.1 -16 42.7 -5.4 13.7 -9.8 24.8 -9.7 24.8 0.1 0 6.9 -7.3 15.1 -16.3 8.2 -8.9 21 -22.4 28.4 -30.1 18.8 -19.3 86.8 -84 88.6 -84.4 4 -0.9 -1 4.5 -27.1 29.4 -36.5 34.8 -74.5 72.1 -74.5 73.1 0 0.4 -4.5 5.4 -10 11.1 -5.5 5.6 -10 10.5 -10 10.8 0 0.2 -3.9 4.9 -8.6 10.3 -8.5 9.8 -8.8 10.4 -33.5 59.7 -13.7 27.4 -25.4 50.3 -26 51 -0.6 0.7 -3.5 6.1 -6.6 12.1 -3.1 5.9 -5.8 11 -6.2 11.3 -0.3 0.3 -2.6 4.3 -5 9 -2.4 4.7 -4.7 8.7 -5 9 -0.3 0.3 -2.1 3.4 -4 7 -1.9 3.6 -3.7 6.7 -4 7 -0.3 0.3 -1.7 2.6 -3 5.3 -1.3 2.6 -2.7 4.7 -3 4.7 -0.3 0 -1.2 1.5 -2 3.3 -0.8 1.7 -2.6 5 -4 7.2 -1.4 2.2 -3.2 5.2 -4 6.8 -0.8 1.5 -1.8 2.7 -2.3 2.7 -0.4 0 -0.8 0.5 -0.8 1.1 0 0.6 -1.2 3 -2.7 5.3 -1.6 2.2 -3.4 5.3 -4.2 6.9 -0.8 1.5 -1.8 2.7 -2.3 2.7 -0.4 0 -0.8 0.6 -0.8 1.3 0 0.7 -0.9 2.3 -2 3.5 -1.1 1.2 -2 2.4 -2 2.8 0 1.9 -25.6 36.7 -33.1 44.8 -4.7 5.2 -11.3 9.5 -14.4 9.6 -0.6 0 -2.1 -0.7 -3.3 -1.6z m9.6 -5.3 c12.8 -10.1 42.8 -53.2 69.4 -99.6 17.6 -30.7 31.4 -56.6 50.8 -95.5 17.4 -34.7 21.3 -43 20.7 -43.6 -0.9 -1 -51.2 63.1 -68.5 87.4 -43 60.3 -80.2 130.1 -80.2 150.5 0 5.9 1.1 6 7.8 0.8z m135.7 -238.7 c13.7 -16.5 13.8 -16.6 20.7 -32.7 15.7 -36.1 35.6 -93.2 33.4 -95.4 -0.9 -1 -9.9 14 -17.7 29.7 -8.5 17.1 -14 29.4 -29.5 66.2 -5.7 13.5 -12.8 29.9 -15.9 36.4 -3 6.4 -5.5 11.9 -5.5 12 0 1.2 2.1 -1.1 14.5 -16.2z m-68 -58.6 c44.1 -46.6 72.4 -100.5 85.9 -163.8 4.5 -21.1 7.9 -49.7 6.8 -56.4 l-0.7 -3.9 -8.6 9 c-25.4 26.8 -62.9 96.5 -78.9 146.8 -8.3 26.4 -18.4 78.5 -15.1 78.5 0.5 0 5.3 -4.6 10.6 -10.2z"/>
  <path d="M1285 578.6 c0 -0.8 0.5 -1.8 1 -2.1 0.6 -0.3 1 0.3 1 1.4 0 1.2 -0.4 2.1 -1 2.1 -0.5 0 -1 -0.6 -1 -1.4z"/>
  <path d="M1286.8 558 c-0.2 -7.4 0 -20.2 0.3 -28.5 0.4 -8.2 1 -30.1 1.3 -48.6 l0.7 -33.6 -5.8 0.9 c-9.2 1.5 -17 0.6 -23.5 -2.7 -6.3 -3.2 -7.8 -5.5 -7.8 -12 0 -3.6 0.5 -4.8 2.4 -6 4.4 -2.9 9.6 0.1 9.6 5.4 0 3.5 4.8 5.1 15.5 5.1 6.8 0 9.7 -0.4 9.9 -1.2 0.3 -0.7 0.9 -22.7 1.6 -48.8 0.6 -26.1 2 -71.6 3 -101 1.1 -29.4 1.7 -53.6 1.5 -53.9 -0.7 -0.6 -0.5 -0.9 -7.5 11.4 -3.5 6.1 -14.9 28.3 -25.3 49.5 -10.4 21.2 -27.6 56.1 -38.1 77.5 -35.2 71.5 -53.4 101.5 -73.5 121.3 -9.7 9.5 -18 14.6 -26.6 16.2 -6.5 1.2 -13.5 0.1 -13.5 -2.1 0 -0.5 -0.7 -0.9 -1.5 -0.9 -2 0 -10.5 -8.5 -10.5 -10.5 0 -0.8 -0.4 -1.5 -1 -1.5 -0.5 0 -1 -0.8 -1 -1.8 0 -1 -0.9 -2.4 -2 -3.2 -1.4 -1 -2 -2.6 -2 -5.2 0 -2.1 -0.4 -3.8 -1 -3.8 -0.5 0 -1 -2.2 -1 -5 0 -2.7 -0.4 -5 -0.8 -5 -1.7 0 -3.6 -14.8 -3.7 -28 0 -12.8 0.2 -14.1 3.7 -25.5 2 -6.6 4.4 -14.6 5.3 -17.7 1.3 -4.8 2.6 -6.8 7.7 -11.8 6.8 -6.6 10.5 -7.7 13.1 -3.9 2.2 3 1.1 5.3 -4.8 10.4 -5.2 4.4 -5.3 4.5 -11.1 21.7 l-5.8 17.3 0.1 16.5 c0.2 17.8 1.3 27.2 4.3 35.8 6 17 18 22.2 33 14.2 8.1 -4.3 21.8 -17.8 31.8 -31.2 19.8 -26.5 36.7 -56.8 79.6 -143.3 31.3 -63.1 46.8 -92.7 50.4 -96.7 2.1 -2.5 3.7 -2.2 5 0.7 1.5 3.2 1.6 32.2 0.2 64.5 -1.3 30.2 -5 134.2 -5 139.8 l0 4.4 3.3 -0.7 c6.9 -1.6 18.5 -5.8 25.9 -9.5 15.1 -7.5 42.9 -28.1 61.4 -45.3 l8.1 -7.6 1.2 -9.8 c1.5 -12.2 5.5 -32.2 8.5 -42.8 3.4 -11.7 7 -20.3 14.8 -35.7 13.3 -26 27.2 -37.8 33.4 -28.3 1.5 2.3 1.5 3.1 -0.1 10.2 -3.8 17.6 -15.7 50.3 -23.2 64.3 -5.7 10.6 -16.5 26.8 -23.5 35.1 -5.1 6.1 -5.3 6.7 -6 13.9 -1 11.4 -0.9 32.8 0.2 39.8 2.2 13.4 8.5 22.1 19.7 27.4 21.6 10.2 45.2 2.9 68.9 -21.4 l7.2 -7.3 0.6 -9.4 c1.8 -25.2 8.8 -46 19.2 -56.6 9.4 -9.8 21.4 -7.4 21.4 4.2 0 11 -13.9 38.5 -29.2 57.9 -5.2 6.7 -5.6 8.5 -3.7 17.3 2 9.3 6.3 12.5 18.7 14.2 10.1 1.4 17.2 0.1 27.2 -4.7 6.8 -3.3 9.6 -5.7 30 -26.4 12.4 -12.5 25.2 -24.7 28.5 -27.2 13.5 -10 25.7 -15.7 39.9 -18.3 9.6 -1.8 15.5 -1.4 21.3 1.3 3.5 1.7 3.5 1.7 5.6 -1.3 5.9 -8.3 16.5 -15.4 30.9 -20.5 5.1 -1.8 11.1 -4.5 13.3 -6 5.2 -3.6 12.1 -7 13.9 -7 0.7 0 2.8 1.3 4.5 2.9 5.2 4.8 3.4 6.9 -13.4 15.1 -7.8 3.9 -14.8 7 -15.6 7 -2.1 0 -15.8 6.7 -19.7 9.6 -1.8 1.4 -4.1 4.2 -5.2 6.3 l-1.9 3.8 2.4 6 c4.6 11.4 5.6 26.5 2 31.9 -0.8 1.3 -1.5 2.6 -1.5 2.8 0 0.9 10.2 3.5 20 5.1 5.2 0.8 19.8 1.8 32.5 2.2 23.3 0.6 25.5 1 25.5 4.6 0 0.8 -0.7 1.8 -1.6 2.1 -2.2 0.9 -2.2 0.8 -2.6 -1.6 -0.3 -2 -0.9 -2.3 -4.8 -2.3 -4 0 -4.5 0.3 -4.8 2.4 l-0.4 2.3 -26.1 -0.5 c-25.7 -0.5 -28.2 -0.8 -42.3 -4.7 -3.8 -1.1 -4.6 -0.9 -8.8 1.4 -10.4 5.8 -28.4 10.2 -46.3 11.3 l-10.3 0.6 0 -3.6 c0 -4.2 0 -4.2 12.5 -5.2 14.2 -1.1 32.7 -5.8 39 -9.9 l2.4 -1.6 -2.1 -3.6 c-1.9 -3.2 -2 -4.5 -1.5 -15.2 0.3 -6.8 1.4 -14.5 2.5 -18.5 l2 -6.8 -3.9 -1.9 c-7.6 -3.9 -24.5 -1.5 -38.4 5.5 -13.6 6.9 -25.4 17.2 -45.1 39.6 -10.7 12.2 -18.4 19.9 -19.8 19.9 -0.4 0 -1.7 0.9 -2.9 2.1 -6.7 6.3 -23.3 11.5 -33.7 10.5 -7.4 -0.7 -15 -2.6 -15 -3.8 0 -0.4 -0.7 -0.8 -1.6 -0.8 -0.8 0 -3.7 -2.3 -6.4 -5 -4.6 -4.7 -7 -9.6 -7 -14.2 0 -2.8 -1.2 -2.2 -7 3.7 -3 3 -5.8 5.5 -6.3 5.5 -0.6 0 -1.7 0.8 -2.6 1.8 -2.1 2.4 -10.8 8.5 -15.7 11 -25.1 12.7 -55.1 4.9 -65.9 -17.1 -4.6 -9.5 -5.7 -19.1 -4.9 -40.6 l0.7 -16.5 -11.9 10.9 c-32.5 29.7 -58.4 46.9 -80.1 53.1 -3.2 0.9 -6.1 1.9 -6.5 2.3 -0.3 0.3 -1.1 17.3 -1.7 37.6 -1.4 47.6 -3.2 83.6 -4.2 85.5 -0.4 0.8 -0.9 -4.5 -1.1 -12z m390.2 -143.6 c0.6 -1.4 1 -4.1 1 -5.9 0 -3.8 -2 -13.9 -2.6 -13.2 -0.7 0.7 -2.2 17.8 -1.7 19.8 0.7 2.7 2.2 2.4 3.3 -0.7z m-167.7 -14.6 c8.8 -13.4 15.6 -28.2 17.2 -37.5 0.6 -3.6 0.4 -4.3 -0.9 -4.3 -2.9 0 -9.4 7.7 -13.5 16.2 -5.3 10.6 -11.2 33.8 -8.7 33.8 0.3 0 2.9 -3.7 5.9 -8.2z m-97.2 -50.8 c14.4 -21.3 27.9 -55.3 31.4 -79 l0.7 -4.5 -4.7 4.5 c-9.8 9.4 -25.7 37.4 -31.4 55.3 -2.9 9.3 -7.4 28.3 -8.6 36.7 l-0.6 4.5 3.1 -3.5 c1.6 -1.9 6.2 -8.2 10.1 -14z"/>
  <path d="M612.6 519.3 c-2.5 -0.7 -6.6 -4.8 -6.6 -6.8 0 -0.8 -0.4 -1.5 -1 -1.5 -0.5 0 -1 -0.9 -1 -2 0 -1.1 -0.4 -2 -1 -2 -0.5 0 -1 -1.3 -1 -3 0 -1.6 -0.4 -3 -1 -3 -0.6 0 -1 -2.7 -1 -6 0 -3.3 -0.4 -6 -1 -6 -0.6 0 -1 -3.3 -1 -8 0 -4.7 -0.4 -8 -1 -8 -1.3 0 -1.3 -11 0.1 -37.8 0.6 -11.7 0.9 -21.6 0.7 -21.8 -0.3 -0.2 -3.8 8.3 -7.8 18.9 -10.7 27.9 -22.4 54.7 -24.9 56.7 -0.3 0.3 -1.2 1.7 -2 3.3 -0.8 1.5 -1.8 2.7 -2.3 2.7 -0.4 0 -0.8 0.6 -0.8 1.4 0 2.3 -11 12.7 -15.5 14.7 -4.3 2 -12.5 2.6 -12.5 0.9 0 -0.5 -0.7 -1 -1.5 -1 -1.9 0 -6.5 -4.4 -6.5 -6.2 0 -0.8 -0.9 -2 -2 -2.8 -1.1 -0.8 -2 -2.2 -2 -3.2 0 -1 -0.4 -1.8 -1 -1.8 -0.5 0 -1 -1.3 -1 -3 0 -1.6 -0.4 -3 -1 -3 -0.5 0 -1 -1.8 -1 -4 0 -2.2 -0.4 -4 -1 -4 -0.5 0 -1 -1.8 -1 -4 0 -2.2 -0.4 -4 -1 -4 -0.6 0 -1 -6 -1 -15.9 0 -11.9 -0.3 -16 -1.2 -16.4 -1 -0.3 -1.3 -9 -1.3 -39 0.1 -21.2 0 -38.5 -0.1 -38.4 -0.1 0.1 -2.5 7 -5.4 15.2 -2.9 8.3 -9 25.1 -13.7 37.5 -4.7 12.4 -9.8 25.9 -11.4 30 -11.2 30.3 -20.4 53.1 -22.9 57 -0.6 0.8 -1.4 2.5 -2 3.7 -1.8 4.2 -9 10.3 -12.2 10.3 -3.2 0 -5.8 -2 -5.8 -4.4 0 -0.9 -0.4 -1.6 -1 -1.6 -0.5 0 -1 -0.9 -1 -2 0 -1.1 -0.4 -2 -1 -2 -0.5 0 -1 -2.2 -1 -4.9 0 -2.7 -0.4 -5.1 -1 -5.3 -2 -0.6 -3.3 -25 -2.7 -50.3 0.7 -28.2 2.6 -54.3 6.2 -84.9 1.4 -11.5 2.3 -21.1 2.1 -21.3 -0.5 -0.6 -1 2.3 -6.6 40.2 -5.9 39.8 -10.1 63.7 -14 79 -2.9 11.6 -10.3 30.7 -12.6 32.6 -0.8 0.6 -1.4 1.7 -1.4 2.3 0 0.7 -2.5 3.8 -5.5 6.9 -9.2 9.4 -16 9.2 -26.1 -0.8 -3.5 -3.6 -6.4 -6.9 -6.4 -7.5 0 -0.6 -1.5 -2.6 -3.4 -4.5 -1.9 -1.9 -5.4 -6.7 -7.7 -10.6 l-4.2 -7.2 -2.4 5.2 c-1.4 2.8 -2.9 5.1 -3.4 5.1 -0.5 0 -0.9 0.6 -0.9 1.4 0 2.3 -10.7 12.4 -15.8 15 -8.9 4.5 -22.2 7.3 -22.2 4.6 0 -0.5 -0.7 -1 -1.5 -1 -2 0 -6.5 -4.5 -6.5 -6.5 0 -0.8 -0.4 -1.5 -1 -1.5 -0.5 0 -1 -0.9 -1 -2 0 -1.1 -0.6 -2 -1.4 -2 -1.9 0 -2.9 -7.4 -1.7 -13.5 2.1 -11 5 -16.6 12.5 -24.1 3.9 -3.8 9.2 -8 11.8 -9.2 8.3 -3.8 19.7 -2.5 25.5 3 3 2.8 3.1 0.9 0.2 -6.7 -2.5 -6.7 -4.9 -8.5 -11.1 -8.5 -16.5 0 -40.9 20.8 -55.1 47 -4.1 7.5 -4.5 9.3 -3.3 17.4 0.7 5.1 1.3 6.5 4.8 9.8 3.9 3.7 4 3.9 2.4 6.3 -2.5 3.8 -5.1 3.1 -11.1 -3 -5 -5 -5.5 -5.8 -5.5 -10 0 -2.5 -0.4 -4.5 -1 -4.5 -0.5 0 -1 -1.3 -1 -3 0 -1.6 0.5 -3 1 -3 0.6 0 1 -0.9 1 -2 0 -1.1 0.5 -2 1 -2 0.6 0 1 -0.9 1 -2 0 -1.1 0.5 -2 1 -2 0.6 0 1 -0.8 1 -1.8 0 -1 0.9 -2.4 2 -3.2 1.3 -0.9 2 -2.6 2 -4.7 0 -5.8 16.4 -24.1 31.3 -34.7 10.8 -7.7 18.8 -10.9 28.4 -11.4 l8.3 -0.5 4.9 4.9 c6 6 9.1 14.8 9.1 25.5 0 6.9 0.1 7.2 8.3 21.6 11.2 20 18.2 27.4 24.1 25.9 6.3 -1.6 15.9 -17.1 22.2 -36 4.7 -13.7 11.2 -43.7 17.9 -82.1 3 -17.6 6.7 -37.4 8 -44 2.6 -12.8 8.8 -36.1 9.8 -37.1 1.4 -1.4 3.6 0.7 4.2 3.8 0.3 1.8 -1 15.7 -2.9 30.8 -3.6 27.4 -6.3 52.5 -8.8 80 -0.7 8.5 -1.3 28.7 -1.3 49 0 31.7 0.2 35 2 40.4 2.6 7.6 4.5 8.9 8.1 5.6 3.7 -3.5 7 -10.4 17.5 -36.6 5 -12.6 15.1 -37.5 22.4 -55.4 7.3 -17.9 16.5 -41.3 20.3 -52 6 -16.6 7.3 -21.3 8.6 -32 3.4 -25.7 8.8 -48.4 12.4 -52.2 2.7 -2.6 7 -3.4 7.8 -1.3 0.8 1.9 -1.3 11.6 -5.7 27 -3.7 12.9 -5.5 23.3 -7.3 42.5 -4 42.7 -4.6 110.7 -1.2 129.5 3.6 19.2 10.7 28.1 20.1 25.2 5.3 -1.6 12.7 -8.6 17.9 -17 10.6 -17 38.2 -80.2 42.7 -97.7 2.1 -8.3 2.8 -9.4 5.2 -8.4 3.3 1.2 3.3 5.5 -0.5 69.7 -1.5 25.7 0.5 45.7 5.5 55.3 2.1 4.1 3.8 4.6 7.4 2.4 3.6 -2.2 7.3 -9.4 15.4 -30.2 6.8 -17.5 12.2 -27.7 20.6 -38.6 6.2 -8.1 18.6 -19.2 26.6 -23.9 2.9 -1.6 8.5 -4.9 12.4 -7.3 9 -5.2 12.8 -6.1 22.3 -5.4 11 0.9 15.1 4.5 11.5 10 -1.7 2.6 -1.7 2.6 -11.9 1.9 -8.3 -0.6 -10.8 -0.4 -13.2 0.8 -6.7 3.5 -11.7 11.6 -15.6 25.2 -3 10.7 -3.2 28.5 -0.4 36 3.8 10.1 10.3 15.5 18.7 15.5 5.1 0 14.5 -4.9 23.7 -12.3 9.4 -7.6 32.6 -34.8 41.8 -48.9 8.1 -12.5 16.9 -16.7 36.7 -17.5 11.3 -0.5 12.9 -0.4 14.7 1.2 2.3 2.1 2.6 5.4 0.8 7.7 -1.1 1.3 -3.9 1.7 -15.4 2 -13.4 0.3 -14.4 0.5 -20 3.3 -10.3 5.3 -14.7 14.9 -14.8 32 -0.1 9.9 0.2 11.5 2.5 16 4.7 9.3 15.4 14.6 33.7 16.8 28.4 3.3 47.3 -8.2 71.1 -43.5 5.4 -7.9 8.1 -11.1 10.9 -12.4 3.5 -1.6 3.7 -1.6 7.9 0.6 2.9 1.6 8.3 7 16.9 17.1 19.6 23 30.7 31.7 47.9 37.5 19.2 6.4 29.8 2.3 56.9 -21.9 7.2 -6.5 10.9 -7.3 11.4 -2.7 0.2 2.2 -1.4 4.1 -9.8 11.5 -5.6 5 -12.9 10.9 -16.3 13.1 -8.1 5.4 -19.8 9.4 -27.4 9.4 -5.7 -0.1 -14.5 -1.9 -15.9 -3.3 -0.4 -0.4 -1.8 -0.7 -3 -0.7 -1.3 0 -2.6 -0.4 -2.9 -1 -0.3 -0.5 -1.5 -1 -2.6 -1 -1 0 -1.9 -0.4 -1.9 -1 0 -0.5 -1 -1 -2.1 -1 -2.9 0 -8.6 -3.6 -13.1 -8.2 -2 -2.1 -4.2 -3.8 -4.9 -3.8 -0.6 0 -1.9 -0.8 -2.8 -1.9 -0.9 -1 -2.6 -2.1 -3.7 -2.5 -2.5 -0.8 -19.4 -17.9 -19.4 -19.7 0 -0.6 -1.3 -2.4 -3 -3.9 -1.6 -1.5 -3 -3.5 -3 -4.4 0 -1 -0.9 -1.6 -2.3 -1.6 -1.3 0 -2.7 -0.4 -3.3 -1 -1 -1 -6.4 2.9 -6.4 4.7 0 0.6 -1.3 2.4 -3 4.1 -1.6 1.8 -3 3.5 -3 3.9 0 2.9 -21.7 25.9 -29.2 31 -9.8 6.6 -21 10.2 -32.3 10.4 -9.5 0.1 -23.4 -1.2 -24.1 -2.2 -0.3 -0.5 -1.7 -0.9 -3.2 -0.9 -1.6 0 -3.4 -0.8 -4.2 -2 -0.9 -1.2 -2.6 -2 -4.5 -2 -5 0 -14.5 -7.6 -14.5 -11.7 0 -1.3 -0.4 -2.3 -1 -2.3 -0.5 0 -1 -1.3 -1 -3 0 -1.6 -0.4 -3 -1 -3 -0.5 0 -1 -1.3 -1 -3 0 -1.6 -0.4 -3 -1 -3 -0.6 0 -1 -3.1 -1 -7.2 l-0.1 -7.3 -3.1 3.5 c-1.7 1.9 -4.8 5.4 -6.9 7.8 -2.2 2.3 -3.9 4.6 -3.9 5.1 0 0.5 -3.8 4.9 -8.4 9.8 -9.3 9.9 -19.5 17.3 -27.7 20.3 -5.8 2.1 -12.4 2.6 -13.4 1 -0.3 -0.5 -1.5 -1 -2.6 -1 -1 0 -1.9 -0.4 -1.9 -1 0 -0.5 -0.7 -1 -1.5 -1 -2.6 0 -12.5 -10.7 -12.5 -13.5 0 -1.4 -0.4 -2.5 -1 -2.5 -0.5 0 -1 -1.3 -1 -3 0 -1.6 -0.4 -3 -1 -3 -0.5 0 -1 -2.2 -1 -5 0 -2.7 -0.4 -5 -1 -5 -1.6 0 -1.2 -15.2 0.6 -23.8 0.9 -4.2 2.4 -10.1 3.5 -13.1 1 -3 1.7 -5.6 1.5 -5.8 -0.8 -0.9 -15.9 12.1 -19.6 16.9 -2.3 2.9 -4.7 6 -5.3 6.8 -0.7 0.9 -2.3 3.6 -3.6 6 -1.4 2.5 -2.7 4.7 -3 5 -0.8 0.7 -6.2 13.5 -11.1 26.5 -7.5 20 -14.6 31.5 -19.5 31.5 -0.7 0 -1.9 0.2 -2.7 0.4 -0.7 0.2 -2.2 0.1 -3.2 -0.1z m-291 -26.1 c9.7 -4.9 16.2 -13.2 19.7 -24.9 l1.6 -5.3 -4 -5 c-8.7 -11 -17.2 -10.7 -29 1 -10.3 10.2 -13.7 25.3 -7.8 34.9 2 3.3 2.1 3.4 7.8 2.8 3.5 -0.3 8 -1.6 11.7 -3.5z"/>
 </g>
</svg>